{"title":"Downstream.2010.DVDRip.AC3.X264-BARC0DE","uid":5794192,"size":1164934578,"categoryP":"video","categoryS":"movies","magnet":"?xt=urn:btih:8889a2a26811cf4f98b81e0bd069ce44c6c1abde&amp;dn=Downstream.2010.DVDRip.AC3.X264-BARC0DE&amp;tr=udp%3A%2F%2Ftracker.openbittorrent.com%3A80&amp;tr=udp%3A%2F%2Fopen.demonii.com%3A1337&amp;tr=udp%3A%2F%2Ftracker.coppersurfer.tk%3A6969&amp;tr=udp%3A%2F%2Fexodus.desync.com%3A6969","seeders":0,"leechers":0,"uploader":"TvTeam","files":4,"time":1282982552,"description":". \n  &lt;a href=&quot;\nhttp://www.torrentday.com/&quot; rel=&quot;nofollow&quot; target=&quot;_NEW&quot;&gt;\nhttp://www.torrentday.com/&lt;/a&gt;        :     The Hottest Private Tracker On The Net!!!\n\n\n               www . TorrentDay . Com \n(((((((((((((= Enjoy No RAR releases =))))))))))))))))))))\n\n\n...................................NFO:....................................\n\n.*******************************************************************************\n                   Downstream.2010.DVDRip.AC3.X264-BARC0DE\n*******************************************************************************\n\n-------------------------------------------------------------------------------\n                              General Information\n-------------------------------------------------------------------------------\nType.................: Movie\nName.................: Downstream\nMovie Information....: http://www.imdb.com/title/tt1229236/\nGenre................: Action | Sci-Fi\n-------------------------------------------------------------------------------\n                                    PLOT\n-------------------------------------------------------------------------------\nWes Keller is a young man living in a world where oil has collapsed, the food \nsupply has been wiped out, and cancer rates for women have skyrocketed, depleting \nthe female population. In a barbaric environment where bio fuel, batteries, \nbullets and people are currency and marauders roam free, Wes tries to escape to \na mythical world run on cold fusion &quot;Plutopia&quot;, a place that may only exist in \nthe mind. THE BILL IS DUE. 'Downstream' is a view of the not so distant future. \nWe follow a young man (everyone's son) as he pays the price for society's \ndecadence. \n\n-------------------------------------------------------------------------------\n                                    CAST\n-------------------------------------------------------------------------------\nJonathon Trent\t... \tWes Keller\nElizabeth Roberts\t... \tSara\nJonno Roberts\t... \tTobias\nLenny von Dohlen\t... \tElder Daniel\nMickey Jones\t... \tMeat Vendor\nFrederick Bartholomew\t... \tLugosi\nMichelle Lang\t... \tJanice\nFiona Gubelmann\t... \tTabitha\nGrace Renn\t... \tMrs. Keller\nBru Muller\t... \tDr. Keller\nBob Rumnock\t... \tSenator Graham\nMatthew J. Evans\t... \tYoung Wes\nBen Crowley\t... \tSam\n\n-------------------------------------------------------------------------------\n                                    MEDiA iNFO\n-------------------------------------------------------------------------------\n\nGeneral\nComplete name                    : Downstream.2010.DVDRip.AC3.X264-BARC0DE.mkv\nFormat                           : Matroska\nFile size                        : 1.08 GiB\nDuration                         : 1h 36mn\nOverall bit rate                 : 1 609 Kbps\n\nVideo\nID                               : 1\nFormat                           : AVC\nFormat/Info                      : Advanced Video Codec\nFormat profile                   : &lt;a class=&quot;__cf_email__&quot; href=&quot;/cdn-cgi/l/email-protection&quot; data-cfemail=&quot;743c1d131c3438475a44&quot;&gt;[email&amp;#160;protected]&lt;/a&gt;&lt;script data-cfhash='f9e31' type=&quot;text/javascript&quot;&gt;\n/* &lt;![CDATA[ */!function(){try{var t=&quot;currentScript&quot;in document?document.currentScript:function(){for(var t=document.getElementsByTagName(&quot;script&quot;),e=t.length;e--;)if(t[e].getAttribute(&quot;data-cfhash&quot;))return t[e]}();if(t&amp;&amp;t.previousSibling){var e,r,n,i,c=t.previousSibling,a=c.getAttribute(&quot;data-cfemail&quot;);if(a){for(e=&quot;&quot;,r=parseInt(a.substr(0,2),16),n=2;a.length-n;n+=2)i=parseInt(a.substr(n,2),16)^r,e+=String.fromCharCode(i);e=document.createTextNode(e),c.parentNode.replaceChild(e,c)}t.parentNode.removeChild(t);}}catch(u){}}()/* ]]&gt; */&lt;/script&gt;\nFormat settings, CABAC           : Yes\nFormat settings, ReFrames        : 3 frames\nMuxing mode                      : Container profile=&lt;a class=&quot;__cf_email__&quot; href=&quot;/cdn-cgi/l/email-protection&quot; data-cfemail=&quot;e0b58e8b8e8f978ea0d3ced0&quot;&gt;[email&amp;#160;protected]&lt;/a&gt;&lt;script data-cfhash='f9e31' type=&quot;text/javascript&quot;&gt;\n/* &lt;![CDATA[ */!function(){try{var t=&quot;currentScript&quot;in document?document.currentScript:function(){for(var t=document.getElementsByTagName(&quot;script&quot;),e=t.length;e--;)if(t[e].getAttribute(&quot;data-cfhash&quot;))return t[e]}();if(t&amp;&amp;t.previousSibling){var e,r,n,i,c=t.previousSibling,a=c.getAttribute(&quot;data-cfemail&quot;);if(a){for(e=&quot;&quot;,r=parseInt(a.substr(0,2),16),n=2;a.length-n;n+=2)i=parseInt(a.substr(n,2),16)^r,e+=String.fromCharCode(i);e=document.createTextNode(e),c.parentNode.replaceChild(e,c)}t.parentNode.removeChild(t);}}catch(u){}}()/* ]]&gt; */&lt;/script&gt;\nCodec ID                         : V_MPEG4/ISO/AVC\nDuration                         : 1h 36mn\nBit rate                         : 1 427 Kbps\nWidth                            : 720 pixels\nHeight                           : 368 pixels\nDisplay aspect ratio             : 1.957\nFrame rate                       : 25.000 fps\nColor space                      : YUV\nChroma subsampling               : 4:2:0\nBit depth                        : 8 bits\nScan type                        : Progressive\nBits/(Pixel*Frame)               : 0.215\nStream size                      : 956 MiB (86%)\nWriting library                  : x264 core 79\n\n\nAudio\nID                               : 2\nFormat                           : AC-3\nFormat/Info                      : Audio Coding 3\nFormat profile                   : Dolby Digital\nMode extension                   : CM (complete main)\nCodec ID                         : A_AC3\nDuration                         : 1h 36mn\nBit rate mode                    : Constant\nBit rate                         : 192 Kbps\nChannel(s)                       : 2 channels\nChannel positions                : Front: L R\nSampling rate                    : 48.0 KHz\nStream size                      : 133 MiB (12%)\nLanguage                         : English","torrent":{"xt":"urn:btih:8889a2a26811cf4f98b81e0bd069ce44c6c1abde","amp;dn":"Downstream.2010.DVDRip.AC3.X264-BARC0DE","amp;tr":["udp%3A%2F%2Ftracker.openbittorrent.com%3A80","udp%3A%2F%2Fopen.demonii.com%3A1337","udp%3A%2F%2Ftracker.coppersurfer.tk%3A6969","udp%3A%2F%2Fexodus.desync.com%3A6969"],"infoHash":"8889a2a26811cf4f98b81e0bd069ce44c6c1abde","infoHashBuffer":{"type":"Buffer","data":[136,137,162,162,104,17,207,79,152,184,30,11,208,105,206,68,198,193,171,222]},"announce":[],"urlList":[]}}